<?xml version="1.0" encoding="UTF-8"?>
<svg width="26px" height="18px" viewBox="0 0 26 18" version="1.1" xmlns="http://www.w3.org/2000/svg" xmlns:xlink="http://www.w3.org/1999/xlink">
    <title>message</title>
    <g id="Page-1" stroke="none" stroke-width="1" fill="none" fill-rule="evenodd">
        <g id="message" fill="#FFFFFF" fill-rule="nonzero">
            <path d="M25,6 C24.4477153,6 24,6.44771525 24,7 L24,15 C24,15.5522847 23.5522847,16 23,16 L3,16 C2.44771525,16 2,15.5522847 2,15 L2,7 C2,6.44771525 1.55228475,6 1,6 C0.44771525,6 0,6.44771525 0,7 L0,15 C0.00070020816,15.7953814 0.31723005,16.5579306 0.88,17.12 C1.44206943,17.6827699 2.2046186,17.9992998 3,18 L23,18 C23.7953814,17.9992998 24.5579306,17.6827699 25.12,17.12 C25.6827699,16.5579306 25.9992998,15.7953814 26,15 L26,7 C26,6.44771525 25.5522847,6 25,6 Z" id="Path"></path>
            <path d="M12.4,11.8 C12.7555556,12.0666667 13.2444444,12.0666667 13.6,11.8 L25.41,2.94 C25.7898536,2.65356094 25.9153164,2.13916343 25.71,1.71 C25.5610726,1.40232145 25.3616451,1.1217708 25.12,0.88 C24.5579306,0.31723005 23.7953814,0.00070020816 23,0 L3,0 C2.2046186,0.00070020816 1.44206943,0.31723005 0.88,0.88 C0.638354947,1.1217708 0.438927371,1.40232145 0.29,1.71 C0.0846836433,2.13916343 0.21014645,2.65356094 0.59,2.94 L12.4,11.8 Z M3,2 L23,2 C23.0927618,1.98539257 23.1872382,1.98539257 23.28,2 L13,9.75 L2.72,2 C2.81276179,1.98539257 2.90723821,1.98539257 3,2 Z" id="Shape"></path>
        </g>
    </g>
</svg>