<svg xmlns="http://www.w3.org/2000/svg" width="15.801" height="13.404" viewBox="0 0 15.801 13.404">
  <g id="group" transform="translate(0 -38.84)">
    <g id="Group_14" data-name="Group 14" transform="translate(12.298 46.076)">
      <g id="Group_13" data-name="Group 13" transform="translate(0 0)">
        <path id="Path_11" data-name="Path 11" d="M399.716,273.32h-1.222a3.178,3.178,0,0,1,.193,1.093v4.618a1.362,1.362,0,0,1-.078.456h2.02A1.37,1.37,0,0,0,402,278.119V275.6A2.283,2.283,0,0,0,399.716,273.32Z" transform="translate(-398.494 -273.32)" fill="#f64c71"/>
      </g>
    </g>
    <g id="Group_16" data-name="Group 16" transform="translate(0 46.077)">
      <g id="Group_15" data-name="Group 15">
        <path id="Path_12" data-name="Path 12" d="M3.31,274.414a3.179,3.179,0,0,1,.193-1.093H2.281A2.284,2.284,0,0,0,0,275.6v2.518a1.37,1.37,0,0,0,1.369,1.369h2.02a1.362,1.362,0,0,1-.078-.456Z" transform="translate(0 -273.321)" fill="#f64c71"/>
      </g>
    </g>
    <g id="Group_18" data-name="Group 18" transform="translate(4.223 44.888)">
      <g id="Group_17" data-name="Group 17">
        <path id="Path_13" data-name="Path 13" d="M141.9,234.815H139.11a2.284,2.284,0,0,0-2.281,2.281v4.618a.456.456,0,0,0,.456.456h6.443a.456.456,0,0,0,.456-.456V237.1A2.284,2.284,0,0,0,141.9,234.815Z" transform="translate(-136.829 -234.815)" fill="#f64c71"/>
      </g>
    </g>
    <g id="Group_20" data-name="Group 20" transform="translate(5.157 38.84)">
      <g id="Group_19" data-name="Group 19">
        <path id="Path_14" data-name="Path 14" d="M169.857,38.84a2.743,2.743,0,1,0,2.743,2.743A2.746,2.746,0,0,0,169.857,38.84Z" transform="translate(-167.114 -38.84)" fill="#f64c71"/>
      </g>
    </g>
    <g id="Group_22" data-name="Group 22" transform="translate(1.032 41.397)">
      <g id="Group_21" data-name="Group 21">
        <path id="Path_15" data-name="Path 15" d="M35.495,121.689a2.051,2.051,0,1,0,2.052,2.052A2.054,2.054,0,0,0,35.495,121.689Z" transform="translate(-33.443 -121.689)" fill="#f64c71"/>
      </g>
    </g>
    <g id="Group_24" data-name="Group 24" transform="translate(10.666 41.397)">
      <g id="Group_23" data-name="Group 23">
        <path id="Path_16" data-name="Path 16" d="M347.659,121.689a2.052,2.052,0,1,0,2.052,2.052A2.054,2.054,0,0,0,347.659,121.689Z" transform="translate(-345.607 -121.689)" fill="#f64c71"/>
      </g>
    </g>
  </g>
</svg>
