<svg xmlns="http://www.w3.org/2000/svg" width="14.102" height="20.057" viewBox="0 0 14.102 20.057">
  <g id="placeholder" transform="translate(-76)">
    <g id="Group_9" data-name="Group 9" transform="translate(76)">
      <g id="Group_8" data-name="Group 8">
        <path id="Path_5" data-name="Path 5" d="M83.051,0a7.053,7.053,0,0,0-6,10.759l5.6,9.02a.588.588,0,0,0,.5.278h0a.587.587,0,0,0,.5-.286l5.455-9.107A7.053,7.053,0,0,0,83.051,0ZM88.1,10.06,83.14,18.34l-5.089-8.2A5.88,5.88,0,1,1,88.1,10.06Z" transform="translate(-76)" fill="#606060"/>
      </g>
    </g>
    <g id="Group_11" data-name="Group 11" transform="translate(79.526 3.526)">
      <g id="Group_10" data-name="Group 10">
        <path id="Path_6" data-name="Path 6" d="M169.526,90a3.526,3.526,0,1,0,3.526,3.526A3.53,3.53,0,0,0,169.526,90Zm0,5.884a2.358,2.358,0,1,1,2.354-2.358A2.36,2.36,0,0,1,169.526,95.884Z" transform="translate(-166 -90)" fill="#606060"/>
      </g>
    </g>
  </g>
</svg>
