<svg xmlns="http://www.w3.org/2000/svg" width="11.298" height="10.946" viewBox="0 0 11.298 10.946">
  <g id="wireless-signal-interface-status-symbol-of-bars-group" transform="translate(0 -8.155)">
    <g id="Group_12" data-name="Group 12" transform="translate(0 8.155)">
      <path id="Path_7" data-name="Path 7" d="M1.694,250.507H.423A.423.423,0,0,0,0,250.93V255.8a.423.423,0,0,0,.423.423h1.27a.423.423,0,0,0,.423-.423V250.93A.423.423,0,0,0,1.694,250.507Z" transform="translate(0 -245.275)" fill="#18d231"/>
      <path id="Path_8" data-name="Path 8" d="M143.385,165.965h-1.27a.423.423,0,0,0-.423.423v6.692a.423.423,0,0,0,.423.423h1.27a.423.423,0,0,0,.423-.423v-6.692A.423.423,0,0,0,143.385,165.965Z" transform="translate(-138.632 -162.558)" fill="#18d231"/>
      <path id="Path_9" data-name="Path 9" d="M285.069,81.424H283.8a.423.423,0,0,0-.423.423v8.517a.423.423,0,0,0,.423.423h1.27a.423.423,0,0,0,.423-.423V81.847A.423.423,0,0,0,285.069,81.424Z" transform="translate(-277.257 -79.842)" fill="#18d231"/>
      <path id="Path_10" data-name="Path 10" d="M426.942,8.155h-1.27a.423.423,0,0,0-.423.423v10.1a.423.423,0,0,0,.423.423h1.27a.423.423,0,0,0,.423-.423V8.578A.423.423,0,0,0,426.942,8.155Z" transform="translate(-416.067 -8.155)" fill="#18d231"/>
    </g>
  </g>
</svg>
